<mxfile host="app.diagrams.net" modified="2022-12-07T04:29:58.345Z" agent="5.0 (Windows NT 10.0; Win64; x64) AppleWebKit/537.36 (KHTML, like Gecko) Chrome/108.0.0.0 Safari/537.36" version="20.6.0" etag="566T4mV2QLBh_qeGuoxu" type="github">
  <diagram id="bSrjD3yqZKZFfZ5qv9DD" name="Page-1">
    <mxGraphModel dx="1038" dy="551" grid="1" gridSize="10" guides="1" tooltips="1" connect="1" arrows="1" fold="1" page="1" pageScale="1" pageWidth="827" pageHeight="1169" math="0" shadow="0">
      <root>
        <mxCell id="0" />
        <mxCell id="1" parent="0" />
        <mxCell id="gNz7T6BwrsU1dW6_9Fsz-21" style="edgeStyle=orthogonalEdgeStyle;rounded=0;orthogonalLoop=1;jettySize=auto;html=1;exitX=0.5;exitY=1;exitDx=0;exitDy=0;" edge="1" parent="1" source="gNz7T6BwrsU1dW6_9Fsz-1" target="gNz7T6BwrsU1dW6_9Fsz-2">
          <mxGeometry relative="1" as="geometry" />
        </mxCell>
        <mxCell id="gNz7T6BwrsU1dW6_9Fsz-22" style="edgeStyle=orthogonalEdgeStyle;rounded=0;orthogonalLoop=1;jettySize=auto;html=1;exitX=1;exitY=0.5;exitDx=0;exitDy=0;" edge="1" parent="1" source="gNz7T6BwrsU1dW6_9Fsz-1" target="gNz7T6BwrsU1dW6_9Fsz-9">
          <mxGeometry relative="1" as="geometry" />
        </mxCell>
        <mxCell id="gNz7T6BwrsU1dW6_9Fsz-1" value="Login" style="ellipse;whiteSpace=wrap;html=1;fillColor=#dae8fc;strokeColor=#6c8ebf;gradientColor=#7ea6e0;" vertex="1" parent="1">
          <mxGeometry x="20" y="60" width="120" height="80" as="geometry" />
        </mxCell>
        <mxCell id="gNz7T6BwrsU1dW6_9Fsz-2" value="Dashboard" style="rounded=1;whiteSpace=wrap;html=1;fillColor=#ffcd28;gradientColor=#ffa500;strokeColor=#d79b00;" vertex="1" parent="1">
          <mxGeometry x="20" y="190" width="120" height="60" as="geometry" />
        </mxCell>
        <mxCell id="gNz7T6BwrsU1dW6_9Fsz-8" style="edgeStyle=orthogonalEdgeStyle;rounded=0;orthogonalLoop=1;jettySize=auto;html=1;exitX=0.5;exitY=1;exitDx=0;exitDy=0;entryX=0.5;entryY=0;entryDx=0;entryDy=0;" edge="1" parent="1" source="gNz7T6BwrsU1dW6_9Fsz-3" target="gNz7T6BwrsU1dW6_9Fsz-5">
          <mxGeometry relative="1" as="geometry" />
        </mxCell>
        <mxCell id="gNz7T6BwrsU1dW6_9Fsz-3" value="Product Management" style="rounded=1;whiteSpace=wrap;html=1;fillColor=#ffcd28;gradientColor=#ffa500;strokeColor=#d79b00;" vertex="1" parent="1">
          <mxGeometry x="170" y="190" width="120" height="60" as="geometry" />
        </mxCell>
        <mxCell id="gNz7T6BwrsU1dW6_9Fsz-7" style="edgeStyle=orthogonalEdgeStyle;rounded=0;orthogonalLoop=1;jettySize=auto;html=1;exitX=0.5;exitY=1;exitDx=0;exitDy=0;entryX=0.5;entryY=0;entryDx=0;entryDy=0;" edge="1" parent="1" source="gNz7T6BwrsU1dW6_9Fsz-4" target="gNz7T6BwrsU1dW6_9Fsz-6">
          <mxGeometry relative="1" as="geometry" />
        </mxCell>
        <mxCell id="gNz7T6BwrsU1dW6_9Fsz-4" value="Accounts" style="rounded=1;whiteSpace=wrap;html=1;fillColor=#ffcd28;gradientColor=#ffa500;strokeColor=#d79b00;" vertex="1" parent="1">
          <mxGeometry x="320" y="190" width="120" height="60" as="geometry" />
        </mxCell>
        <mxCell id="gNz7T6BwrsU1dW6_9Fsz-5" value="Add Design" style="rounded=1;whiteSpace=wrap;html=1;fillColor=#fff2cc;gradientColor=#ffd966;strokeColor=#d6b656;" vertex="1" parent="1">
          <mxGeometry x="170" y="300" width="120" height="60" as="geometry" />
        </mxCell>
        <mxCell id="gNz7T6BwrsU1dW6_9Fsz-6" value="Order history" style="rounded=1;whiteSpace=wrap;html=1;fillColor=#fff2cc;gradientColor=#ffd966;strokeColor=#d6b656;" vertex="1" parent="1">
          <mxGeometry x="320" y="300" width="120" height="60" as="geometry" />
        </mxCell>
        <mxCell id="gNz7T6BwrsU1dW6_9Fsz-14" style="edgeStyle=orthogonalEdgeStyle;rounded=0;orthogonalLoop=1;jettySize=auto;html=1;exitX=0.5;exitY=1;exitDx=0;exitDy=0;entryX=0.5;entryY=0;entryDx=0;entryDy=0;" edge="1" parent="1" source="gNz7T6BwrsU1dW6_9Fsz-9" target="gNz7T6BwrsU1dW6_9Fsz-10">
          <mxGeometry relative="1" as="geometry" />
        </mxCell>
        <mxCell id="gNz7T6BwrsU1dW6_9Fsz-15" style="edgeStyle=orthogonalEdgeStyle;rounded=0;orthogonalLoop=1;jettySize=auto;html=1;exitX=0.5;exitY=1;exitDx=0;exitDy=0;entryX=0.563;entryY=0.073;entryDx=0;entryDy=0;entryPerimeter=0;" edge="1" parent="1" source="gNz7T6BwrsU1dW6_9Fsz-9" target="gNz7T6BwrsU1dW6_9Fsz-11">
          <mxGeometry relative="1" as="geometry" />
        </mxCell>
        <mxCell id="gNz7T6BwrsU1dW6_9Fsz-9" value="Profile" style="ellipse;whiteSpace=wrap;html=1;aspect=fixed;fillColor=#d5e8d4;gradientColor=#97d077;strokeColor=#82b366;" vertex="1" parent="1">
          <mxGeometry x="610" y="60" width="80" height="80" as="geometry" />
        </mxCell>
        <mxCell id="gNz7T6BwrsU1dW6_9Fsz-10" value="Edit Profile" style="rounded=1;whiteSpace=wrap;html=1;fillColor=#ffcd28;gradientColor=#ffa500;strokeColor=#d79b00;" vertex="1" parent="1">
          <mxGeometry x="510" y="190" width="120" height="60" as="geometry" />
        </mxCell>
        <mxCell id="gNz7T6BwrsU1dW6_9Fsz-11" value="Logout" style="rounded=1;whiteSpace=wrap;html=1;fillColor=#f8cecc;gradientColor=#ea6b66;strokeColor=#b85450;" vertex="1" parent="1">
          <mxGeometry x="660" y="190" width="120" height="60" as="geometry" />
        </mxCell>
        <mxCell id="gNz7T6BwrsU1dW6_9Fsz-16" value="" style="endArrow=none;html=1;rounded=0;entryX=0;entryY=0.5;entryDx=0;entryDy=0;exitX=1;exitY=0.5;exitDx=0;exitDy=0;" edge="1" parent="1" source="gNz7T6BwrsU1dW6_9Fsz-2" target="gNz7T6BwrsU1dW6_9Fsz-3">
          <mxGeometry width="50" height="50" relative="1" as="geometry">
            <mxPoint x="130" y="245" as="sourcePoint" />
            <mxPoint x="180" y="195" as="targetPoint" />
          </mxGeometry>
        </mxCell>
        <mxCell id="gNz7T6BwrsU1dW6_9Fsz-18" value="" style="endArrow=none;html=1;rounded=0;entryX=0;entryY=0.5;entryDx=0;entryDy=0;exitX=1;exitY=0.5;exitDx=0;exitDy=0;" edge="1" parent="1" source="gNz7T6BwrsU1dW6_9Fsz-3" target="gNz7T6BwrsU1dW6_9Fsz-4">
          <mxGeometry width="50" height="50" relative="1" as="geometry">
            <mxPoint x="390" y="310" as="sourcePoint" />
            <mxPoint x="440" y="260" as="targetPoint" />
          </mxGeometry>
        </mxCell>
      </root>
    </mxGraphModel>
  </diagram>
</mxfile>
